<svg width="72" height="72" viewBox="0 0 72 72" fill="none" xmlns="http://www.w3.org/2000/svg">
<g clip-path="url(#clip0_3843_11889)">
<rect width="72" height="72" rx="36" fill="#101517"/>
<path d="M19.5 48.5C19.9 46.1 24 31.5 26 24.5C0.729694 -0.729739 43.4999 -21.63 71.9999 12C92 35.6 74.4999 60 67.9999 66.5C61.4999 73 51.5 74.6892 39 73C27.1015 71.3921 27.8333 55.692 29 50.5C26.4539 50.654 19.2196 50.1819 19.5 48.5Z" fill="#F0F0F0"/>
<path d="M33.8108 35.7569C33.973 34.865 34.3946 33.5677 35.7567 33.5677C37.1189 33.5677 37.7027 34.865 37.7027 35.7569" stroke="#101517" stroke-width="0.972973"/>
<path d="M41.4443 60.9192C41.6385 60.7335 41.6453 60.4256 41.4596 60.2314C41.2739 60.0373 40.9659 60.0304 40.7718 60.2161L41.4443 60.9192ZM29.5504 64.9315C29.5902 64.9216 29.7041 64.9144 29.9584 64.9278C30.2125 64.9412 30.4703 64.9643 30.8516 64.987C31.5699 65.0297 32.5084 65.054 33.6 64.9116C35.7935 64.6255 38.5671 63.6714 41.4443 60.9192L40.7718 60.2161C38.0544 62.8153 35.4766 63.6856 33.4742 63.9468C32.4678 64.078 31.5972 64.0567 30.9093 64.0158C30.5874 63.9966 30.2429 63.9685 30.0095 63.9562C29.7763 63.9439 29.5178 63.9368 29.3144 63.9876L29.5504 64.9315Z" fill="#101517"/>
<path d="M20.6756 18.4866L21.0914 18.234L20.6756 18.4866ZM46.1536 24.5329C46.4031 24.4332 46.5244 24.15 46.4246 23.9006C46.3248 23.6511 46.0417 23.5298 45.7923 23.6296L46.1536 24.5329ZM24.5409 -3.81002C16.9909 1.22334 15.7179 11.267 20.2599 18.7393L21.0914 18.234C16.7732 11.13 18.0361 1.6959 25.0806 -3.00046L24.5409 -3.81002ZM20.2599 18.7393C24.1278 25.1025 29.4006 27.0581 34.3184 27.1521C39.1994 27.2454 43.7194 25.5066 46.1536 24.5329L45.7923 23.6296C43.3616 24.6018 39.0033 26.2685 34.337 26.1793C29.7075 26.0908 24.7641 24.2762 21.0914 18.234L20.2599 18.7393Z" fill="#101517"/>
<circle cx="45.2433" cy="50.1084" r="1.94595" fill="#101517"/>
</g>
<rect x="0.5" y="0.5" width="71" height="71" rx="35.5" stroke="#F0F0F0"/>
<defs>
<clipPath id="clip0_3843_11889">
<rect width="72" height="72" rx="36" fill="white"/>
</clipPath>
</defs>
</svg>
